<svg width="90" height="90" viewBox="0 0 90 90" fill="none" xmlns="http://www.w3.org/2000/svg">
<circle cx="45" cy="45" r="45" fill="#1A8FE3" fill-opacity="0.9"/>
<path d="M43.5 24C40.8478 24 38.3043 25.0536 36.4289 26.9289C34.5536 28.8043 33.5 31.3478 33.5 34C33.5 36.6522 34.5536 39.1957 36.4289 41.0711C38.3043 42.9464 40.8478 44 43.5 44C46.1522 44 48.6957 42.9464 50.5711 41.0711C52.4464 39.1957 53.5 36.6522 53.5 34C53.5 31.3478 52.4464 28.8043 50.5711 26.9289C48.6957 25.0536 46.1522 24 43.5 24ZM36 34C36 32.0109 36.7902 30.1032 38.1967 28.6967C39.6032 27.2902 41.5109 26.5 43.5 26.5C45.4891 26.5 47.3968 27.2902 48.8033 28.6967C50.2098 30.1032 51 32.0109 51 34C51 35.9891 50.2098 37.8968 48.8033 39.3033C47.3968 40.7098 45.4891 41.5 43.5 41.5C41.5109 41.5 39.6032 40.7098 38.1967 39.3033C36.7902 37.8968 36 35.9891 36 34ZM31.0225 46.5C30.3641 46.4974 29.7116 46.6247 29.1026 46.8748C28.4935 47.1249 27.9398 47.4927 27.4731 47.9572C27.0065 48.4217 26.6362 48.9738 26.3834 49.5818C26.1306 50.1897 26.0003 50.8416 26 51.5C26 55.7275 28.0825 58.915 31.3375 60.9925C34.5425 63.035 38.8625 64 43.5 64C45.8875 64 48.19 63.745 50.3 63.2175L48.35 61.0825C46.84 61.3575 45.2125 61.5 43.5 61.5C39.1625 61.5 35.3575 60.59 32.6825 58.8825C30.0575 57.2075 28.5 54.775 28.5 51.5C28.5 50.1175 29.62 49 31.0225 49H44.2475C44.6668 48.0699 45.2503 47.2231 45.97 46.5H31.02H31.0225ZM57.2475 49.0075L55.6775 47.775C54.4957 46.8462 53.0076 46.3961 51.5092 46.5141C50.0107 46.6322 48.6115 47.3098 47.5897 48.4122C46.5679 49.5146 45.9984 50.9611 45.9942 52.4643C45.9901 53.9674 46.5518 55.417 47.5675 56.525L56.325 66.1C56.4421 66.2281 56.5846 66.3304 56.7435 66.4004C56.9023 66.4704 57.0739 66.5065 57.2475 66.5065C57.4211 66.5065 57.5927 66.4704 57.7515 66.4004C57.9104 66.3304 58.0529 66.2281 58.17 66.1L66.93 56.525C67.9457 55.417 68.5074 53.9674 68.5032 52.4643C68.4991 50.9611 67.9296 49.5146 66.9078 48.4122C65.886 47.3098 64.4868 46.6322 62.9883 46.5141C61.4898 46.3961 60.0018 46.8462 58.82 47.775L57.2475 49.0075Z" fill="white"/>
</svg>
