<svg width="90" height="90" viewBox="0 0 90 90" fill="none" xmlns="http://www.w3.org/2000/svg">
<circle cx="45" cy="45" r="45" fill="#1A8FE3" fill-opacity="0.9"/>
<path fill-rule="evenodd" clip-rule="evenodd" d="M45.2379 35.1465L43.4169 33.2748C40.5472 30.3262 35.1809 31.3015 33.233 35.1033C32.3441 36.8429 32.0876 39.4384 33.8324 42.8797C35.4857 46.1507 38.9396 50.1303 45.2379 54.5036C51.5336 50.1278 54.9875 46.1482 56.6434 42.8797C58.3881 39.4384 58.1341 36.8429 57.2427 35.1058C55.2948 31.3015 49.9286 30.3262 47.0588 33.2748L45.2379 35.1465ZM43.9934 56.7334C16.6162 37.8385 36.3745 23.3245 44.9052 31.177C45.0195 31.2811 45.1312 31.3903 45.2404 31.5046C45.3496 31.3903 45.4614 31.2811 45.5756 31.177C54.1088 23.3245 73.8595 37.841 46.4823 56.7334L47.0791 57.9219C47.1165 57.9966 47.1387 58.0779 47.1446 58.1613C47.1506 58.2446 47.14 58.3282 47.1136 58.4075C47.0872 58.4867 47.0454 58.56 46.9907 58.6231C46.936 58.6862 46.8694 58.7379 46.7947 58.7752C46.72 58.8126 46.6386 58.8348 46.5553 58.8408C46.472 58.8467 46.3883 58.8361 46.3091 58.8097C46.2299 58.7833 46.1566 58.7416 46.0935 58.6868C46.0304 58.6321 45.9787 58.5655 45.9413 58.4908L45.921 58.4476C45.9413 58.727 45.9718 58.9606 46.015 59.1841C46.1521 59.8698 46.4239 60.4234 47.0791 61.7313C47.8105 63.1993 47.6759 64.6519 47.2721 65.8684C46.8734 67.0595 46.2004 68.0703 45.7788 68.7001L45.7686 68.7179C45.7223 68.7873 45.6627 68.8468 45.5933 68.8932C45.524 68.9395 45.4461 68.9717 45.3643 68.988C45.2825 69.0043 45.1982 69.0043 45.1164 68.988C45.0346 68.9717 44.9568 68.9395 44.8874 68.8931C44.818 68.8468 44.7585 68.7872 44.7121 68.7178C44.6658 68.6484 44.6335 68.5706 44.6173 68.4888C44.601 68.407 44.601 68.3227 44.6173 68.2409C44.6336 68.1591 44.6658 68.0812 44.7122 68.0119C45.1388 67.3719 45.728 66.4881 46.0658 65.4646C46.4036 64.4589 46.4797 63.372 45.9413 62.3002L45.9083 62.2291C45.2988 61.0101 44.9433 60.3041 44.7706 59.4304C44.6994 59.0531 44.6553 58.6712 44.6385 58.2876L44.5369 58.4908C44.5 58.566 44.4485 58.6331 44.3855 58.6883C44.3224 58.7435 44.2491 58.7857 44.1697 58.8125C44.0903 58.8392 44.0064 58.8499 43.9228 58.8441C43.8392 58.8382 43.7576 58.8159 43.6827 58.7784C43.6078 58.7408 43.541 58.6888 43.4863 58.6254C43.4316 58.5619 43.39 58.4883 43.3638 58.4086C43.3377 58.329 43.3276 58.245 43.3341 58.1615C43.3406 58.0779 43.3636 57.9965 43.4017 57.9219L43.9985 56.7334H43.9934ZM40.1916 34.2322C38.5434 33.7751 36.4253 34.443 35.4933 36.2588C35.1606 36.9141 34.8711 38.0086 35.2901 39.6492C35.4501 40.2689 36.3415 40.1521 36.5269 39.54C37.0602 37.7699 38.1193 35.8652 39.9783 35.243C40.5294 35.0576 40.7503 34.3871 40.1916 34.2322Z" fill="white"/>
</svg>
