<svg width="90" height="90" viewBox="0 0 90 90" fill="none" xmlns="http://www.w3.org/2000/svg">
<circle cx="45" cy="45" r="45" fill="#1A8FE3" fill-opacity="0.9"/>
<path d="M28.9999 63.9994H48.2396C49.3938 64 50.5343 63.7506 51.5829 63.2683C52.6314 62.786 53.563 62.0822 54.3135 61.2055L64.5174 49.3016C64.731 49.0528 64.8802 48.7553 64.9518 48.4352C65.0234 48.1151 65.0151 47.7823 64.9278 47.4662C64.8405 47.15 64.6767 46.8602 64.451 46.6223C64.2253 46.3843 63.9445 46.2056 63.6334 46.1017L59.6974 44.7897C58.7462 44.4805 57.7333 44.4105 56.7486 44.586C55.7638 44.7615 54.8375 45.177 54.0515 45.7957L47.6816 50.8896L46.4477 48.4197C45.7866 47.0882 44.7659 45.9685 43.5012 45.1874C42.2365 44.4062 40.7783 43.9948 39.2918 43.9997H28.9999C26.794 43.9997 25 45.7937 25 47.9997V59.9995C25 62.2054 26.794 63.9994 28.9999 63.9994ZM28.9999 47.9997H39.2918C40.8177 47.9997 42.1877 48.8457 42.8697 50.2096L43.7637 51.9996H34.9998V55.9995H47.0276C47.3353 55.9955 47.6379 55.9202 47.9116 55.7795L47.9176 55.7775L47.9256 55.7735H47.9316L47.9356 55.7715H47.9436L47.9456 55.7695C47.9636 55.7755 47.9516 55.7675 47.9516 55.7675C47.9716 55.7675 47.9556 55.7655 47.9556 55.7655H47.9576L47.9616 55.7635L47.9676 55.7615L47.9716 55.7595L47.9756 55.7575L47.9816 55.7555L47.9856 55.7535C47.9916 55.7535 47.9876 55.7515 47.9896 55.7515L47.9956 55.7475L47.9996 55.7455L48.0036 55.7435L48.0096 55.7415L48.0136 55.7395H48.0156L48.0196 55.7375H48.0216L48.0256 55.7355L48.0296 55.7335C48.0476 55.7315 48.0356 55.7315 48.0356 55.7315L48.0396 55.7295C48.1167 55.683 48.1902 55.6309 48.2596 55.5735L56.5515 48.9397C57.0755 48.5237 57.7975 48.3937 58.4315 48.6057L59.5454 48.9777L51.2796 58.6235C50.8994 59.0552 50.4317 59.4012 49.9076 59.6384C49.3835 59.8756 48.8149 59.9987 48.2396 59.9995H28.9999V47.9997ZM52.9995 26H52.9655C52.6396 26.004 50.9536 26.078 48.9996 27.41C47.0976 26.114 45.4517 26.01 45.0637 26.002L45.0037 26H44.9957C43.3937 26 41.8857 26.626 40.7577 27.756C39.6258 28.89 38.9998 30.3959 38.9998 31.9999C38.9998 33.6039 39.6258 35.1099 40.7217 36.2079L47.5496 43.3797C47.7375 43.5748 47.9628 43.7298 48.212 43.8357C48.4612 43.9416 48.7293 43.9961 49 43.9959C49.2708 43.9957 49.5388 43.9408 49.7878 43.8346C50.0369 43.7284 50.262 43.573 50.4496 43.3777L57.2415 36.2419C58.3755 35.1099 58.9995 33.6039 58.9995 31.9999C58.9995 30.3959 58.3735 28.89 57.2435 27.758C56.6882 27.1991 56.0275 26.7559 55.2997 26.4542C54.5719 26.1524 53.7914 25.998 53.0036 26H52.9995ZM54.9995 31.9999C54.9995 32.5339 54.7915 33.0359 54.3775 33.4499L48.9996 39.0998L43.5857 33.4139C43.2077 33.0359 42.9997 32.5339 42.9997 31.9999C42.9997 31.4659 43.2077 30.9639 43.5877 30.5839C43.9494 30.2161 44.4418 30.0061 44.9577 30C45.0077 30.002 45.9617 30.064 47.0916 30.9699C47.2536 31.0999 47.4176 31.2479 47.5856 31.4139L48.9996 32.8279L50.4136 31.4139C50.5816 31.2479 50.7456 31.0999 50.9076 30.9699C51.9656 30.12 52.8596 30.014 53.0116 30.002C53.2722 30.0019 53.5303 30.0535 53.7709 30.1537C54.0116 30.254 54.23 30.4009 54.4135 30.5859C54.7915 30.9639 54.9995 31.4659 54.9995 31.9999Z" fill="white"/>
</svg>
