<svg width="28" height="27" viewBox="0 0 28 27" fill="none" xmlns="http://www.w3.org/2000/svg">
<path d="M21.1 0H7.59998C3.87205 0 0.849976 3.02208 0.849976 6.75V20.25C0.849976 23.9779 3.87205 27 7.59998 27H21.1C24.8279 27 27.85 23.9779 27.85 20.25V6.75C27.85 3.02208 24.8279 0 21.1 0Z" fill="#353535"/>
<path d="M19.7499 12.6497C19.9165 13.7732 19.7246 14.9207 19.2015 15.9288C18.6783 16.937 17.8506 17.7546 16.8361 18.2652C15.8215 18.7759 14.6718 18.9536 13.5504 18.7732C12.429 18.5927 11.3931 18.0633 10.5899 17.2601C9.78679 16.457 9.25734 15.421 9.07689 14.2997C8.89644 13.1783 9.07419 12.0285 9.58484 11.014C10.0955 9.99942 10.913 9.17171 11.9212 8.64859C12.9294 8.12546 14.0769 7.93356 15.2004 8.10016C16.3464 8.27011 17.4074 8.80414 18.2267 9.62338C19.0459 10.4426 19.58 11.5036 19.7499 12.6497Z" fill="white"/>
<path d="M21.775 6.07495H21.788" stroke="white" stroke-width="2.7" stroke-linecap="round" stroke-linejoin="round"/>
</svg>
