<svg width="31" height="25" viewBox="0 0 31 25" fill="none" xmlns="http://www.w3.org/2000/svg">
<path d="M30.55 0.363673C29.2572 1.27557 27.8258 1.97302 26.311 2.42917C25.4979 1.49431 24.4174 0.831707 23.2155 0.530973C22.0136 0.230239 20.7483 0.305887 19.5908 0.747685C18.4333 1.18948 17.4394 1.97611 16.7435 3.00119C16.0476 4.02627 15.6834 5.24033 15.7 6.47917V7.82917C13.3275 7.89069 10.9767 7.36452 8.85684 6.29753C6.73698 5.23053 4.9139 3.65583 3.54998 1.71367C3.54998 1.71367 -1.85002 13.8637 10.3 19.2637C7.51969 21.1509 4.20764 22.0972 0.849976 21.9637C13 28.7137 27.85 21.9637 27.85 6.43867C27.8487 6.06263 27.8126 5.68753 27.742 5.31817C29.1198 3.95939 30.0921 2.24384 30.55 0.363673Z" fill="#353535"/>
</svg>
