<svg width="37" height="37" viewBox="0 0 37 37" fill="none" xmlns="http://www.w3.org/2000/svg">
<path d="M16.3905 0.21875C15.0851 0.21875 13.8332 0.737303 12.9102 1.66033C11.9871 2.58336 11.4686 3.83526 11.4686 5.14062C11.4686 10.0625 19.9061 14.2812 19.9061 14.2812C19.9061 14.2812 28.3436 10.0625 28.3436 5.14062C28.3436 3.83526 27.825 2.58336 26.902 1.66033C25.979 0.737303 24.7271 0.21875 23.4217 0.21875C22.0422 0.21875 20.7991 0.791094 19.9061 1.70516C19.4493 1.23483 18.9028 0.860942 18.2989 0.605624C17.6951 0.350306 17.0461 0.218752 16.3905 0.21875ZM16.3905 3.03125C16.9586 3.03125 17.493 3.25625 17.8952 3.66828L18.6461 4.4375H21.1661L21.917 3.66828C22.1121 3.46641 22.3459 3.30594 22.6045 3.19649C22.863 3.08703 23.141 3.03083 23.4217 3.03125C24.5847 3.03125 25.5311 3.97766 25.5311 5.14062C25.5311 6.91391 22.5695 9.46625 19.9061 11.068C17.2412 9.46484 14.2811 6.91391 14.2811 5.14062C14.2811 3.97766 15.2275 3.03125 16.3905 3.03125ZM23.0266 15.658L20.7245 17.2723L24.3948 22.5078L19.3295 26.015L15.7534 24.163L19.5503 22.2519L19.5644 22.2406L19.5784 22.2322C20.2494 21.8357 20.7701 21.2279 21.0589 20.504C21.3477 19.7801 21.3884 18.9809 21.1745 18.2314V18.2286C20.9106 17.3374 20.3064 16.5859 19.4927 16.1367C18.679 15.6875 17.7212 15.5766 16.8264 15.8281H16.8236L6.82234 18.6153L0.203125 23.1631L2.86797 34.0208L9.9625 31.4586L20.0116 36.6617L36.7038 25.1052L35.1048 22.7933L19.8034 33.3866L10.165 28.3944L4.85219 30.3125L3.39953 24.3838L8.03031 21.1972L17.5956 18.5295H17.6012C17.69 18.5007 17.7838 18.4904 17.8767 18.4992C17.9696 18.5081 18.0597 18.5359 18.1415 18.581C18.2232 18.6261 18.2948 18.6874 18.3518 18.7613C18.4089 18.8352 18.4502 18.92 18.4731 19.0105C18.5171 19.1592 18.5098 19.3184 18.4524 19.4625C18.395 19.6066 18.2909 19.7272 18.1567 19.805L12.0283 22.8889L9.56734 24.125L19.5405 29.2916L28.3211 23.2109L23.0266 15.658Z" fill="#1A8FE3"/>
</svg>
