<svg width="31" height="40" viewBox="0 0 31 40" fill="none" xmlns="http://www.w3.org/2000/svg">
<path fill-rule="evenodd" clip-rule="evenodd" d="M15.2379 6.14647L13.4169 4.27476C10.5472 1.32624 5.18092 2.30146 3.23302 6.10329C2.34415 7.84294 2.08764 10.4384 3.83237 13.8797C5.48567 17.1507 8.93957 21.1303 15.2379 25.5036C21.5336 21.1278 24.9875 17.1482 26.6434 13.8797C28.3881 10.4384 28.1341 7.84294 27.2427 6.10583C25.2948 2.30146 19.9286 1.32624 17.0588 4.27476L15.2379 6.14647ZM13.9934 27.7334C-13.3838 8.83848 6.37454 -5.67553 14.9052 2.17702C15.0195 2.28114 15.1312 2.39035 15.2404 2.50463C15.3496 2.39035 15.4614 2.28114 15.5756 2.17702C24.1088 -5.67553 43.8595 8.84102 16.4823 27.7334L17.0791 28.9219C17.1165 28.9966 17.1387 29.0779 17.1446 29.1613C17.1506 29.2446 17.14 29.3282 17.1136 29.4075C17.0872 29.4867 17.0454 29.56 16.9907 29.6231C16.936 29.6862 16.8694 29.7379 16.7947 29.7752C16.72 29.8126 16.6386 29.8348 16.5553 29.8408C16.472 29.8467 16.3883 29.8361 16.3091 29.8097C16.2299 29.7833 16.1566 29.7416 16.0935 29.6868C16.0304 29.6321 15.9787 29.5655 15.9413 29.4908L15.921 29.4476C15.9413 29.727 15.9718 29.9606 16.015 30.1841C16.1521 30.8698 16.4239 31.4234 17.0791 32.7313C17.8105 34.1993 17.6759 35.6519 17.2721 36.8684C16.8734 38.0595 16.2004 39.0703 15.7788 39.7001L15.7686 39.7179C15.7223 39.7873 15.6627 39.8468 15.5933 39.8932C15.524 39.9395 15.4461 39.9717 15.3643 39.988C15.2825 40.0043 15.1982 40.0043 15.1164 39.988C15.0346 39.9717 14.9568 39.9395 14.8874 39.8931C14.818 39.8468 14.7585 39.7872 14.7121 39.7178C14.6658 39.6484 14.6335 39.5706 14.6173 39.4888C14.601 39.407 14.601 39.3227 14.6173 39.2409C14.6336 39.1591 14.6658 39.0812 14.7122 39.0119C15.1388 38.3719 15.728 37.4881 16.0658 36.4646C16.4036 35.4589 16.4797 34.372 15.9413 33.3002L15.9083 33.2291C15.2988 32.0101 14.9433 31.3041 14.7706 30.4304C14.6994 30.0531 14.6553 29.6712 14.6385 29.2876L14.5369 29.4908C14.5 29.566 14.4485 29.6331 14.3855 29.6883C14.3224 29.7435 14.2491 29.7857 14.1697 29.8125C14.0903 29.8392 14.0064 29.8499 13.9228 29.8441C13.8392 29.8382 13.7576 29.8159 13.6827 29.7784C13.6078 29.7408 13.541 29.6888 13.4863 29.6254C13.4316 29.5619 13.39 29.4883 13.3638 29.4086C13.3377 29.329 13.3276 29.245 13.3341 29.1615C13.3406 29.0779 13.3636 28.9965 13.4017 28.9219L13.9985 27.7334H13.9934ZM10.1916 5.2322C8.54339 4.77506 6.42534 5.44299 5.49329 7.25883C5.1606 7.91405 4.87108 9.00863 5.29012 10.6492C5.45012 11.2689 6.34153 11.1521 6.52692 10.54C7.06025 8.76991 8.11927 6.86518 9.97828 6.24297C10.5294 6.05758 10.7503 5.38712 10.1916 5.2322Z" fill="#1A8FE3"/>
</svg>
