<svg width="36" height="35" viewBox="0 0 36 35" fill="none" xmlns="http://www.w3.org/2000/svg">
<path d="M15.1625 0C12.9787 0 10.8843 0.867512 9.34015 2.41169C7.79597 3.95587 6.92846 6.05023 6.92846 8.23403C6.92846 10.4178 7.79597 12.5122 9.34015 14.0564C10.8843 15.6006 12.9787 16.4681 15.1625 16.4681C17.3463 16.4681 19.4407 15.6006 20.9848 14.0564C22.529 12.5122 23.3965 10.4178 23.3965 8.23403C23.3965 6.05023 22.529 3.95587 20.9848 2.41169C19.4407 0.867512 17.3463 0 15.1625 0ZM8.98697 8.23403C8.98697 6.59618 9.6376 5.02541 10.7957 3.86728C11.9539 2.70914 13.5246 2.05851 15.1625 2.05851C16.8003 2.05851 18.3711 2.70914 19.5292 3.86728C20.6874 5.02541 21.338 6.59618 21.338 8.23403C21.338 9.87189 20.6874 11.4427 19.5292 12.6008C18.3711 13.7589 16.8003 14.4096 15.1625 14.4096C13.5246 14.4096 11.9539 13.7589 10.7957 12.6008C9.6376 11.4427 8.98697 9.87189 8.98697 8.23403ZM4.88847 18.5266C4.34634 18.5244 3.80911 18.6293 3.30759 18.8352C2.80607 19.0411 2.35014 19.344 1.96592 19.7265C1.58171 20.109 1.27679 20.5635 1.06864 21.0641C0.860482 21.5647 0.753196 22.1015 0.75293 22.6436C0.75293 26.1245 2.46767 28.7491 5.14785 30.4598C7.78685 32.1416 11.344 32.9361 15.1625 32.9361C17.1284 32.9361 19.0243 32.7262 20.7616 32.2918L19.156 30.5339C17.9127 30.7603 16.5726 30.8776 15.1625 30.8776C11.591 30.8776 8.45793 30.1283 6.25532 28.7224C4.09389 27.3432 2.81144 25.3402 2.81144 22.6436C2.81144 21.5052 3.73365 20.5851 4.88847 20.5851H15.778C16.1232 19.8193 16.6037 19.122 17.1963 18.5266H4.88642H4.88847ZM26.4822 20.5913L25.1895 19.5764C24.2164 18.8116 22.9911 18.441 21.7573 18.5382C20.5234 18.6354 19.3713 19.1933 18.53 20.1011C17.6886 21.0088 17.2197 22.1999 17.2163 23.4376C17.2129 24.6752 17.6753 25.8689 18.5117 26.7812L25.7226 34.6653C25.8191 34.7708 25.9364 34.855 26.0672 34.9126C26.198 34.9702 26.3393 35 26.4822 35C26.6251 35 26.7665 34.9702 26.8973 34.9126C27.028 34.855 27.1454 34.7708 27.2418 34.6653L34.4548 26.7812C35.2912 25.8689 35.7536 24.6752 35.7503 23.4376C35.7469 22.1999 35.2779 21.0088 34.4366 20.1011C33.5952 19.1933 32.4431 18.6354 31.2093 18.5382C29.9754 18.441 28.7501 18.8116 27.777 19.5764L26.4822 20.5913Z" fill="#1A8FE3"/>
</svg>
