<svg width="33" height="40" viewBox="0 0 33 40" fill="none" xmlns="http://www.w3.org/2000/svg">
<path d="M31.0908 16.7273C31.0908 28.1818 16.3635 38 16.3635 38C16.3635 38 1.63623 28.1818 1.63623 16.7273C1.63623 12.8214 3.18785 9.07542 5.94975 6.31352C8.71165 3.55162 12.4576 2 16.3635 2C20.2694 2 24.0154 3.55162 26.7773 6.31352C29.5392 9.07542 31.0908 12.8214 31.0908 16.7273Z" stroke="#1A8FE3" stroke-width="2.6" stroke-linecap="round" stroke-linejoin="round"/>
<path d="M16.3637 21.6364C19.0749 21.6364 21.2728 19.4385 21.2728 16.7273C21.2728 14.0161 19.0749 11.8182 16.3637 11.8182C13.6525 11.8182 11.4546 14.0161 11.4546 16.7273C11.4546 19.4385 13.6525 21.6364 16.3637 21.6364Z" stroke="#1A8FE3" stroke-width="2.6" stroke-linecap="round" stroke-linejoin="round"/>
</svg>
