<svg width="28" height="27" viewBox="0 0 28 27" fill="none" xmlns="http://www.w3.org/2000/svg">
<path d="M20.5503 0H7.05029C3.32237 0 0.300293 3.02208 0.300293 6.75V20.25C0.300293 23.9779 3.32237 27 7.05029 27H20.5503C24.2782 27 27.3003 23.9779 27.3003 20.25V6.75C27.3003 3.02208 24.2782 0 20.5503 0Z" fill="#1A8FE3" fill-opacity="0.9"/>
<path d="M19.2001 12.6495C19.3667 13.7731 19.1748 14.9205 18.6517 15.9287C18.1285 16.9369 17.3008 17.7544 16.2863 18.2651C15.2717 18.7758 14.122 18.9535 13.0006 18.773C11.8792 18.5926 10.8433 18.0632 10.0401 17.26C9.23698 16.4569 8.70753 15.4209 8.52708 14.2995C8.34664 13.1781 8.52438 12.0284 9.03503 11.0138C9.54569 9.99929 10.3632 9.17159 11.3714 8.64847C12.3796 8.12534 13.5271 7.93344 14.6506 8.10004C15.7966 8.26999 16.8576 8.80402 17.6769 9.62325C18.4961 10.4425 19.0301 11.5035 19.2001 12.6495Z" fill="white"/>
<path d="M21.2256 6.07495H21.2386" stroke="white" stroke-width="2.7" stroke-linecap="round" stroke-linejoin="round"/>
</svg>
