<svg width="30" height="25" viewBox="0 0 30 25" fill="none" xmlns="http://www.w3.org/2000/svg">
<path d="M30.0003 0.363673C28.7075 1.27557 27.2761 1.97302 25.7613 2.42917C24.9482 1.49431 23.8677 0.831707 22.6658 0.530973C21.4639 0.230239 20.1986 0.305887 19.0411 0.747685C17.8836 1.18948 16.8897 1.97611 16.1938 3.00119C15.4979 4.02627 15.1337 5.24033 15.1503 6.47917V7.82917C12.7778 7.89069 10.427 7.36452 8.30716 6.29753C6.1873 5.23053 4.36422 3.65583 3.00029 1.71367C3.00029 1.71367 -2.39971 13.8637 9.75029 19.2637C6.97001 21.1509 3.65795 22.0972 0.300293 21.9637C12.4503 28.7137 27.3003 21.9637 27.3003 6.43867C27.2991 6.06264 27.2629 5.68753 27.1923 5.31817C28.5701 3.95939 29.5424 2.24384 30.0003 0.363673V0.363673Z" fill="#1A8FE3" fill-opacity="0.9"/>
</svg>
